<svg width="18" height="18" fill="none" xmlns="http://www.w3.org/2000/svg"><path d="M.09 8.669a1 1 0 1 0 1.82.83l-1.82-.83ZM4.43 7.333l-.74.674.74-.674ZM8.454 15.5l-.94.343L8 17.17l1.09-.9-.635-.771Zm9.521-13.778a1 1 0 0 0-1.95-.444l1.95.444ZM1.91 9.498c.372-.816.781-1.438 1.14-1.701.151-.11.214-.1.22-.099.017.002.16.024.42.309L5.168 6.66c-.461-.506-1.012-.869-1.655-.947-.653-.08-1.215.155-1.646.471C1.062 6.774.477 7.818.09 8.67l1.82.83Zm1.78-1.491c.798.876 1.562 2.274 2.237 3.786.666 1.493 1.204 3 1.587 4.05l1.88-.686c-.377-1.032-.94-2.61-1.64-4.18-.693-1.55-1.562-3.193-2.586-4.317L3.69 8.007Zm5.4 8.265c2.942-2.424 7.112-6.768 8.885-14.55l-1.95-.444c-1.645 7.218-5.485 11.208-8.207 13.45l1.272 1.544Z" fill="#3D3C39"/></svg>