<svg width="24" height="24" viewBox="0 0 21 20" fill="none" xmlns="http://www.w3.org/2000/svg">
<path fill-rule="evenodd" clip-rule="evenodd" d="M4.98535 16.382V4C4.98535 3.44772 5.43307 3 5.98535 3H15.9854C16.5376 3 16.9854 3.44772 16.9854 4V16.382C16.9854 17.1253 16.203 17.6088 15.5381 17.2764L11.4326 15.2236C11.151 15.0828 10.8197 15.0828 10.5381 15.2236L6.43256 17.2764C5.76766 17.6088 4.98535 17.1253 4.98535 16.382ZM11.1714 6.11936C11.0939 5.96021 10.8768 5.96021 10.7993 6.11936L10.0162 7.72703C9.98587 7.78934 9.92892 7.83269 9.86299 7.84367L8.16162 8.12717C7.99321 8.15523 7.92614 8.3715 8.04665 8.49792L9.26403 9.77501C9.31121 9.8245 9.33296 9.89465 9.32256 9.96374L9.05415 11.7466C9.02759 11.9231 9.20318 12.0568 9.35517 11.9758L10.8906 11.1574C10.9502 11.1257 11.0205 11.1257 11.0801 11.1574L12.6155 11.9758C12.7675 12.0568 12.9431 11.9231 12.9165 11.7466L12.6481 9.96374C12.6377 9.89465 12.6595 9.8245 12.7067 9.77501L13.9241 8.49792C14.0446 8.3715 13.9775 8.15523 13.8091 8.12717L12.1077 7.84367C12.0418 7.83269 11.9848 7.78934 11.9545 7.72703L11.1714 6.11936Z" fill="currentColor"/>
</svg>
