<svg width="24" height="24" viewBox="0 0 24 24" fill="none" xmlns="http://www.w3.org/2000/svg">
<path d="M18.1111 12C18.1111 15.3751 15.3751 18.1111 12 18.1111C8.62494 18.1111 5.88891 15.3751 5.88891 12C5.88891 8.62493 8.62494 5.88889 12 5.88889C15.3751 5.88889 18.1111 8.62493 18.1111 12Z" fill="currentColor"/>
<path d="M12 1L14.117 4.66667H9.88306L12 1Z" fill="currentColor"/>
<path d="M12 23L9.88306 19.3333H14.117L12 23Z" fill="currentColor"/>
<path d="M19.7782 4.22183L18.6824 8.31146L15.6886 5.31764L19.7782 4.22183Z" fill="currentColor"/>
<path d="M4.22184 19.7782L5.31766 15.6885L8.31148 18.6824L4.22184 19.7782Z" fill="currentColor"/>
<path d="M19.7782 19.7782L15.6885 18.6824L18.6824 15.6886L19.7782 19.7782Z" fill="currentColor"/>
<path d="M4.22185 4.22182L8.31148 5.31764L5.31766 8.31146L4.22185 4.22182Z" fill="currentColor"/>
<path d="M23 12L19.3334 14.1169V9.88305L23 12Z" fill="currentColor"/>
<path d="M1 12L4.66667 9.88305L4.66666 14.117L1 12Z" fill="currentColor"/>
</svg>
