<svg width="20" height="21" viewBox="0 0 20 21" fill="none" xmlns="http://www.w3.org/2000/svg">
<path fill-rule="evenodd" clip-rule="evenodd" d="M11.814 13.2532L16.1815 17.6208C16.572 18.0113 17.2052 18.0113 17.5957 17.6208C17.9863 17.2302 17.9863 16.5971 17.5957 16.2065L13.2282 11.839L13.415 11.6522C13.8055 11.2617 13.8055 10.6285 13.415 10.238L13.0514 9.87441C13.0444 9.86738 13.0373 9.86048 13.0301 9.85371C13.833 7.82079 13.4124 5.41664 11.7684 3.77264C9.55928 1.5635 5.97756 1.5635 3.76842 3.77264C1.55929 5.98177 1.55929 9.56349 3.76842 11.7726C5.41242 13.4166 7.81657 13.8372 9.84948 13.0343C9.85626 13.0415 9.86316 13.0486 9.87019 13.0556L10.2337 13.4192C10.6243 13.8097 11.2574 13.8097 11.648 13.4192L11.814 13.2532ZM10.3542 10.3584C11.7823 8.93033 11.7823 6.61494 10.3542 5.18685C8.92612 3.75876 6.61073 3.75876 5.18264 5.18685C3.75455 6.61494 3.75455 8.93033 5.18264 10.3584C6.61073 11.7865 8.92612 11.7865 10.3542 10.3584Z" fill="#3D3C39"/>
</svg>
