<svg width="24" height="24" viewBox="0 0 24 24" fill="none" xmlns="http://www.w3.org/2000/svg">
<path fill-rule="evenodd" clip-rule="evenodd" d="M16.75 2.7901H6.75C5.92157 2.7901 5.25 3.46167 5.25 4.2901V17.2901C5.25 18.1185 5.92157 18.7901 6.75 18.7901H13.3246C13.2708 18.5636 13.2501 18.3423 13.25 18.1403C13.2499 17.8842 13.2825 17.6481 13.3293 17.4531C13.3728 17.272 13.4386 17.0833 13.5304 16.9475C13.5373 16.9374 13.5474 16.9208 13.5606 16.899C13.6324 16.7812 13.7966 16.5115 14.036 16.2946C14.3486 16.0113 14.7969 15.7901 15.4329 15.7901C16.1485 15.7901 16.6457 16.194 16.9776 16.5672C17.0819 16.6845 17.176 16.8057 17.2591 16.9183C17.3225 16.8145 17.396 16.7028 17.4809 16.5943C17.6706 16.3522 17.9177 16.1263 18.25 15.9771V4.2901C18.25 3.46167 17.5784 2.7901 16.75 2.7901ZM19.75 15.91V4.2901C19.75 2.63325 18.4069 1.2901 16.75 1.2901H6.75C5.09315 1.2901 3.75 2.63325 3.75 4.2901V17.2901C3.75 18.947 5.09315 20.2901 6.75 20.2901H14.2704C14.3681 20.3964 14.4545 20.4852 14.5438 20.569C14.7384 20.7513 14.9441 20.9068 15.2948 21.1719L15.3174 21.189C15.6938 21.4735 16.5749 22.276 16.9382 22.6423L17.2932 23L17.6481 22.6423C17.7885 22.5008 17.9625 22.3553 18.1881 22.1666L18.1882 22.1666L18.3133 22.0618C18.5927 21.8273 18.9203 21.5458 19.2762 21.1871C19.3635 21.0991 19.4529 21.0105 19.543 20.9212L19.5435 20.9208C19.9101 20.5574 20.2884 20.1825 20.5835 19.7918C20.9645 19.2873 21.25 18.7052 21.25 17.9839C21.25 17.4486 20.977 16.912 20.6218 16.5221C20.3924 16.2704 20.0926 16.0409 19.75 15.91ZM14.4498 17.3658L14.4498 17.3658C14.5239 17.2466 14.5877 17.1442 14.7075 17.0356C14.8431 16.9127 15.0543 16.7901 15.4329 16.7901C15.7316 16.7901 15.9786 16.9487 16.2303 17.2317C16.3557 17.3728 16.467 17.5275 16.5808 17.6874L16.6005 17.715C16.6991 17.8538 16.8177 18.0207 16.9383 18.1423L17.2932 18.5L17.6481 18.1423C17.7911 17.9982 17.9022 17.8036 17.9819 17.664L17.9918 17.6467L17.9934 17.6439C18.0863 17.4813 18.1672 17.3399 18.2682 17.211C18.4479 16.9815 18.6841 16.7964 19.1535 16.7964C19.3646 16.7964 19.6396 16.929 19.8826 17.1957C20.1253 17.462 20.25 17.7692 20.25 17.9839C20.25 18.4163 20.0862 18.7909 19.7855 19.1891C19.5379 19.517 19.2261 19.8264 18.8663 20.1835L18.8657 20.1841C18.7692 20.2798 18.6694 20.379 18.5664 20.4828C18.2425 20.8092 17.9421 21.0678 17.6704 21.2958L17.5538 21.3934C17.4688 21.4644 17.3847 21.5346 17.3035 21.6041C16.8624 21.188 16.2483 20.6391 15.9204 20.3912C15.5409 20.1043 15.3791 19.9813 15.2276 19.8393C15.0748 19.6961 14.9293 19.5307 14.5946 19.1483C14.3406 18.858 14.2502 18.4895 14.25 18.1398C14.2499 17.9667 14.2723 17.8091 14.3017 17.6864C14.3268 17.5818 14.3512 17.5263 14.358 17.5109C14.3601 17.5062 14.3605 17.5052 14.3588 17.5077C14.3929 17.4573 14.4221 17.4104 14.4498 17.3658Z" fill="#4B586C"/>
<path d="M8.25 6.7901H15.25" stroke="#4B586C" stroke-linecap="round"/>
<path d="M8.25 10.7901H15.25" stroke="#4B586C" stroke-linecap="round"/>
<path d="M8.25 14.7901H15.25" stroke="#4B586C" stroke-linecap="round"/>
</svg>
