<svg width="18" height="22" viewBox="0 0 18 22" fill="none" xmlns="http://www.w3.org/2000/svg">
<path fill-rule="evenodd" clip-rule="evenodd" d="M13 1.5H3C2.17157 1.5 1.5 2.17157 1.5 3V16C1.5 16.8284 2.17157 17.5 3 17.5H9.57464C9.52082 17.2735 9.5001 17.0522 9.5 16.8502C9.49987 16.5941 9.53253 16.358 9.57932 16.163C9.62277 15.9819 9.68862 15.7932 9.78043 15.6574C9.78726 15.6473 9.79737 15.6307 9.81064 15.6089C9.88239 15.4911 10.0466 15.2214 10.286 15.0045C10.5986 14.7212 11.0469 14.5 11.6829 14.5C12.3985 14.5 12.8957 14.9039 13.2276 15.2771C13.3319 15.3944 13.426 15.5156 13.5091 15.6282C13.5725 15.5244 13.646 15.4127 13.7309 15.3042C13.9206 15.0621 14.1677 14.8362 14.5 14.687V3C14.5 2.17157 13.8284 1.5 13 1.5ZM16 14.6199V3C16 1.34315 14.6569 0 13 0H3C1.34315 0 0 1.34315 0 3V16C0 17.6569 1.34315 19 3 19H10.5204C10.6181 19.1063 10.7045 19.1951 10.7938 19.2789C10.9884 19.4612 11.1941 19.6167 11.5448 19.8818L11.5674 19.8989C11.9438 20.1834 12.8249 20.9859 13.1882 21.3522L13.5432 21.7099L13.8981 21.3522C14.0385 21.2107 14.2125 21.0652 14.4381 20.8765L14.4382 20.8765L14.5633 20.7717C14.8427 20.5372 15.1703 20.2557 15.5262 19.897C15.6135 19.809 15.7029 19.7204 15.793 19.6311L15.7935 19.6307C16.1601 19.2673 16.5384 18.8924 16.8335 18.5017C17.2145 17.9972 17.5 17.4151 17.5 16.6938C17.5 16.1585 17.227 15.6219 16.8718 15.232C16.6424 14.9803 16.3426 14.7508 16 14.6199ZM10.6998 16.0757L10.6998 16.0757C10.7739 15.9565 10.8377 15.8541 10.9575 15.7455C11.0931 15.6226 11.3043 15.5 11.6829 15.5C11.9816 15.5 12.2286 15.6586 12.4803 15.9416C12.6057 16.0827 12.717 16.2374 12.8308 16.3973L12.8505 16.4249C12.9491 16.5637 13.0677 16.7306 13.1883 16.8522L13.5432 17.2099L13.8981 16.8522C14.0411 16.7081 14.1522 16.5135 14.2319 16.3739L14.2418 16.3566L14.2434 16.3538C14.3363 16.1912 14.4172 16.0498 14.5182 15.9209C14.6979 15.6914 14.9341 15.5063 15.4035 15.5063C15.6146 15.5063 15.8896 15.6389 16.1326 15.9056C16.3753 16.1719 16.5 16.4791 16.5 16.6938C16.5 17.1262 16.3362 17.5008 16.0355 17.899C15.7879 18.2269 15.4761 18.5363 15.1163 18.8934L15.1157 18.894C15.0192 18.9897 14.9194 19.0889 14.8164 19.1927C14.4925 19.5191 14.1921 19.7777 13.9204 20.0057L13.8038 20.1033C13.7188 20.1743 13.6347 20.2445 13.5535 20.314C13.1124 19.8979 12.4983 19.349 12.1704 19.1011C11.7909 18.8142 11.6291 18.6912 11.4776 18.5492C11.3248 18.406 11.1793 18.2406 10.8446 17.8582C10.5906 17.5679 10.5002 17.1994 10.5 16.8497C10.4999 16.6766 10.5223 16.519 10.5517 16.3963C10.5768 16.2917 10.6012 16.2362 10.608 16.2208C10.6101 16.2161 10.6105 16.2151 10.6088 16.2176C10.6429 16.1672 10.6721 16.1203 10.6998 16.0757Z" fill="#4B586C"/>
<path d="M4.5 5.5H11.5" stroke="#4B586C" stroke-linecap="round"/>
<path d="M4.5 9.5H11.5" stroke="#4B586C" stroke-linecap="round"/>
<path d="M4.5 13.5H11.5" stroke="#4B586C" stroke-linecap="round"/>
</svg>
