<svg width="20" height="20" viewBox="1 0 20 20" fill="none" xmlns="http://www.w3.org/2000/svg">
  <path d="M9.07526 6.93386L10.9854 3.01248L12.8954 6.93386C13.078 7.30869 13.4296 7.58537 13.8551 7.65627L18.0735 8.35919L15.0327 11.5492C14.7429 11.8532 14.6165 12.2741 14.6778 12.6816L15.3415 17.0903L11.5907 15.0911C11.2115 14.889 10.7592 14.889 10.38 15.0911L6.62918 17.0903L7.29288 12.6816C7.35424 12.2741 7.22779 11.8532 6.93803 11.5492L3.89716 8.35919L8.11565 7.65627C8.54113 7.58537 8.89268 7.30869 9.07526 6.93386ZM11.1633 2.6471L11.1635 2.64672L11.1633 2.6471Z" fill="currentColor" stroke="#3D3C39" stroke-width="1.5" />
</svg>