<svg width="20" height="20" viewBox="0 0 20 20" fill="none" xmlns="http://www.w3.org/2000/svg">
<path d="M5.84654 3C8.16524 3 9.2483 5.625 10.0987 6.5C10.9492 5.625 11.3744 3.01471 14.3509 3.01471C16.182 3.01471 18 5.2022 18 6.9522C18 9.64411 15.9462 11.4171 13.8201 13.6046C12.2663 15.2033 10.9492 16.125 10.0987 17C9.24833 16.125 7.192 14.2101 6.27179 13.5C4.57095 12.1875 4.57093 12.1875 3.07064 10.4376L3.07054 10.4375C1.43651 8.53161 2.05837 5.77083 2.44482 5.1875C2.83127 4.60417 3.52783 3 5.84654 3Z" fill="#EC1F44" stroke="white" stroke-width="1.5"/>
</svg>
