<svg width="22" height="20" viewBox="0 0 22 20" fill="none" xmlns="http://www.w3.org/2000/svg">
<path d="M5.70237 1.10522C8.5515 1.10522 9.88232 4.42087 10.9273 5.52609C11.9723 4.42087 12.4948 1.1238 16.1522 1.1238C18.4022 1.1238 20.6361 3.88684 20.6361 6.09727C20.6361 9.49743 18.1125 11.737 15.5 14.5C13.5908 16.5193 11.9723 17.6835 10.9273 18.7887C9.88236 17.6835 7.35562 15.2647 6.2249 14.3678C4.13498 12.71 4.13496 12.71 2.29145 10.4997L2.29134 10.4996C0.283498 8.09223 1.04761 4.60508 1.52247 3.86827C1.99732 3.13146 2.85323 1.10522 5.70237 1.10522Z" stroke="#2A313C" stroke-width="1.5"/>
</svg>
