<svg width="24" height="24" viewBox="0 0 24 24" fill="none" xmlns="http://www.w3.org/2000/svg">
<path d="M5.29976 17.8582C9.16544 18.7496 13.3317 17.1247 15.42 13.6038C17.5083 10.0829 16.8708 5.75817 14.1449 2.94504C14.9984 3.14185 15.8372 3.46132 16.6358 3.91013C21.0514 6.39174 22.5642 11.8879 20.0149 16.1862C17.4656 20.4845 11.8194 21.9572 7.40382 19.4756C6.60523 19.0267 5.9016 18.4793 5.29976 17.8582Z" fill="currentColor"/>
<path d="M7.65289 6.88961C8.97933 6.88961 10.3058 5.5984 10.3058 4.3072C10.3058 5.5984 11.6322 6.88961 12.9587 6.88961C11.6322 6.88961 10.3058 8.18081 10.3058 9.47202C10.3058 8.18081 8.97933 6.88961 7.65289 6.88961Z" fill="currentColor"/>
<path d="M5 11.4088C5.99483 11.4088 6.98966 10.4404 6.98966 9.47202C6.98966 10.4404 7.9845 11.4088 8.97933 11.4088C7.9845 11.4088 6.98966 12.3772 6.98966 13.3456C6.98966 12.3772 5.99483 11.4088 5 11.4088Z" fill="currentColor"/>
<path d="M10.3058 13.3456C10.969 13.3456 11.6322 12.7 11.6322 12.0544C11.6322 12.7 12.2954 13.3456 12.9587 13.3456C12.2954 13.3456 11.6322 13.9912 11.6322 14.6368C11.6322 13.9912 10.969 13.3456 10.3058 13.3456Z" fill="currentColor"/>
</svg>
