<svg width="24" height="24" viewBox="0 0 20 20" fill="none" xmlns="http://www.w3.org/2000/svg">
<path d="M6.21134 14.4949C9.12566 15.1852 12.2666 13.9268 13.8409 11.1999C15.4153 8.47308 14.9347 5.12372 12.8797 2.94504C13.5231 3.09746 14.1555 3.34488 14.7575 3.69247C18.0864 5.6144 19.227 9.87103 17.305 13.1999C15.3831 16.5288 11.1265 17.6694 7.79758 15.7474C7.19553 15.3998 6.66506 14.9759 6.21134 14.4949Z" fill="currentColor"/>
<path d="M7.98535 5.99999C8.98535 5.99999 9.98535 4.99999 9.98535 3.99999C9.98535 4.99999 10.9854 5.99999 11.9854 5.99999C10.9854 5.99999 9.98535 6.99999 9.98535 7.99999C9.98535 6.99999 8.98535 5.99999 7.98535 5.99999Z" fill="currentColor"/>
<path d="M5.98535 9.49999C6.73535 9.49999 7.48535 8.74999 7.48535 7.99999C7.48535 8.74999 8.23535 9.49999 8.98535 9.49999C8.23535 9.49999 7.48535 10.25 7.48535 11C7.48535 10.25 6.73535 9.49999 5.98535 9.49999Z" fill="currentColor"/>
<path d="M9.98535 11C10.4854 11 10.9854 10.5 10.9854 9.99999C10.9854 10.5 11.4854 11 11.9854 11C11.4854 11 10.9854 11.5 10.9854 12C10.9854 11.5 10.4854 11 9.98535 11Z" fill="currentColor"/>
</svg>
