<svg width="24" height="24" viewBox="0 0 20 20" fill="none" xmlns="http://www.w3.org/2000/svg">
<path d="M15.9854 10C15.9854 12.7614 13.7468 15 10.9854 15C8.22394 15 5.98537 12.7614 5.98537 10C5.98537 7.23858 8.22394 5 10.9854 5C13.7468 5 15.9854 7.23858 15.9854 10Z" fill="currentColor"/>
<path d="M10.9854 1L12.7174 4H9.25332L10.9854 1Z" fill="currentColor"/>
<path d="M10.9854 19L9.25332 16H12.7174L10.9854 19Z" fill="currentColor"/>
<path d="M17.3493 3.63604L16.4528 6.9821L14.0033 4.53261L17.3493 3.63604Z" fill="currentColor"/>
<path d="M4.62141 16.364L5.51798 13.0179L7.96747 15.4674L4.62141 16.364Z" fill="currentColor"/>
<path d="M17.3493 16.364L14.0033 15.4674L16.4527 13.0179L17.3493 16.364Z" fill="currentColor"/>
<path d="M4.62141 3.63604L7.96747 4.53261L5.51798 6.9821L4.62141 3.63604Z" fill="currentColor"/>
<path d="M19.9854 10L16.9854 11.732V8.26795L19.9854 10Z" fill="currentColor"/>
<path d="M1.98535 10L4.98535 8.26795L4.98535 11.7321L1.98535 10Z" fill="currentColor"/>
</svg>
