<svg width="123" height="27" viewBox="0 0 123 27" fill="none" xmlns="http://www.w3.org/2000/svg">
<path d="M10.854 16.141C10.854 16.501 10.863 16.888 10.881 17.302C10.899 17.716 10.908 18.04 10.908 18.274V19.57L10.881 22.135V22.297H8.586H5.778C5.202 22.297 4.617 22.288 4.023 22.27C3.429 22.252 2.844 22.261 2.268 22.297C2.214 22.315 2.151 22.324 2.079 22.324C2.025 22.324 1.962 22.342 1.89 22.378C1.638 22.468 1.422 22.621 1.242 22.837C1.062 23.053 0.972 23.305 0.972 23.593C0.972 23.899 1.044 24.124 1.188 24.268C1.332 24.43 1.512 24.538 1.728 24.592C1.944 24.646 2.178 24.673 2.43 24.673C2.682 24.673 2.907 24.673 3.105 24.673C4.671 24.673 6.219 24.664 7.749 24.646C9.297 24.646 10.863 24.646 12.447 24.646C14.139 24.646 15.831 24.655 17.523 24.673C19.215 24.691 20.916 24.7 22.626 24.7C22.968 24.7 23.274 24.574 23.544 24.322C23.832 24.07 23.976 23.764 23.976 23.404C23.976 22.936 23.742 22.603 23.274 22.405C23.22 22.387 23.04 22.369 22.734 22.351C22.428 22.333 22.059 22.315 21.627 22.297C21.195 22.297 20.727 22.288 20.223 22.27C19.737 22.27 19.269 22.27 18.819 22.27C18.369 22.27 17.973 22.27 17.631 22.27C17.289 22.27 17.064 22.27 16.956 22.27H14.175H13.419C13.419 21.982 13.41 21.712 13.392 21.46C13.392 21.19 13.392 20.974 13.392 20.812V19.516L13.419 16.951V16.114C14.067 16.096 14.751 16.078 15.471 16.06C16.209 16.042 16.893 16.024 17.523 16.006C18.153 15.97 18.693 15.934 19.143 15.898C19.593 15.844 19.881 15.79 20.007 15.736C20.241 15.646 20.43 15.493 20.574 15.277C20.736 15.061 20.817 14.827 20.817 14.575C20.817 14.251 20.7 13.99 20.466 13.792C20.25 13.594 19.989 13.495 19.683 13.495C19.269 13.495 18.846 13.513 18.414 13.549C17.982 13.585 17.559 13.612 17.145 13.63C16.101 13.666 15.057 13.702 14.013 13.738C12.987 13.774 11.961 13.792 10.935 13.792C10.737 13.792 10.431 13.783 10.017 13.765C9.621 13.747 9.207 13.711 8.775 13.657C8.361 13.603 7.965 13.531 7.587 13.441C7.227 13.333 6.984 13.207 6.858 13.063C6.768 12.955 6.687 12.721 6.615 12.361C6.561 12.001 6.516 11.578 6.48 11.092C6.444 10.588 6.408 10.057 6.372 9.499C6.354 8.923 6.336 8.374 6.318 7.852C6.318 7.312 6.318 6.835 6.318 6.421C6.318 6.007 6.318 5.71 6.318 5.53C6.318 5.404 6.318 5.242 6.318 5.044C6.336 4.846 6.345 4.639 6.345 4.423C6.345 4.207 6.336 4 6.318 3.802C6.318 3.586 6.309 3.415 6.291 3.289C6.219 3.019 6.075 2.812 5.859 2.668C5.661 2.506 5.427 2.425 5.157 2.425C4.815 2.425 4.5 2.551 4.212 2.803C3.942 3.055 3.807 3.361 3.807 3.721C3.807 4.081 3.798 4.558 3.78 5.152C3.78 5.728 3.78 6.367 3.78 7.069C3.798 7.753 3.816 8.473 3.834 9.229C3.87 9.967 3.915 10.669 3.969 11.335C4.041 12.001 4.122 12.604 4.212 13.144C4.32 13.666 4.455 14.062 4.617 14.332C4.869 14.764 5.247 15.097 5.751 15.331C6.273 15.565 6.84 15.745 7.452 15.871C8.064 15.997 8.676 16.078 9.288 16.114C9.9 16.132 10.422 16.141 10.854 16.141ZM41.3317 23.62V13.279C41.4037 13.279 41.4667 13.279 41.5207 13.279C41.5927 13.261 41.6647 13.252 41.7367 13.252L42.5467 13.198C42.6187 13.198 42.6817 13.198 42.7357 13.198C42.8077 13.18 42.8797 13.171 42.9517 13.171L43.7887 13.117L43.8157 15.358V20.731L43.7617 23.323V24.619C43.7617 24.943 43.8697 25.195 44.0857 25.375C44.3197 25.573 44.5897 25.672 44.8957 25.672C45.2197 25.672 45.4987 25.564 45.7327 25.348C45.9847 25.15 46.1557 24.898 46.2457 24.592C46.2817 24.448 46.2907 24.295 46.2727 24.133C46.2727 23.971 46.2727 23.818 46.2727 23.674C46.2727 22.216 46.2727 20.758 46.2727 19.3C46.2907 17.842 46.2997 16.375 46.2997 14.899C46.2997 14.719 46.2997 14.296 46.2997 13.63C46.2997 12.964 46.2997 12.181 46.2997 11.281C46.2997 10.381 46.2997 9.436 46.2997 8.446C46.2997 7.456 46.2907 6.538 46.2727 5.692C46.2547 4.846 46.2367 4.135 46.2187 3.559C46.2007 2.983 46.1827 2.668 46.1647 2.614C45.9487 2.146 45.5887 1.912 45.0847 1.912C44.7427 1.912 44.4277 2.038 44.1397 2.29C43.8697 2.524 43.7347 2.821 43.7347 3.181V7.258L43.7617 10.768L42.5467 10.849L41.4667 10.93H41.3317V3.181C41.3317 2.875 41.2147 2.623 40.9807 2.425C40.7647 2.227 40.5037 2.128 40.1977 2.128C39.8557 2.128 39.5407 2.254 39.2527 2.506C38.9827 2.758 38.8477 3.064 38.8477 3.424V23.836C38.8477 24.16 38.9557 24.421 39.1717 24.619C39.4057 24.817 39.6757 24.916 39.9817 24.916C40.3237 24.916 40.6297 24.79 40.8997 24.538C41.1877 24.286 41.3317 23.98 41.3317 23.62ZM33.6097 5.584C33.6997 5.692 33.7447 5.881 33.7447 6.151C33.7627 6.421 33.7717 6.628 33.7717 6.772C33.7717 7.132 33.7627 7.501 33.7447 7.879C33.7447 8.239 33.7357 8.599 33.7177 8.959L33.6367 11.146C33.1507 11.164 32.6647 11.182 32.1787 11.2C31.7107 11.2 31.2337 11.2 30.7477 11.2C30.3157 11.2 29.8837 11.2 29.4517 11.2C29.0377 11.2 28.6237 11.191 28.2097 11.173C27.9577 11.155 27.7147 11.137 27.4807 11.119C27.2647 11.083 27.0397 11.065 26.8057 11.065C26.4997 11.065 26.2117 11.173 25.9417 11.389C25.6897 11.587 25.5277 11.839 25.4557 12.145C25.4197 12.415 25.4017 12.748 25.4017 13.144C25.4197 13.522 25.4287 13.855 25.4287 14.143C25.4287 14.899 25.4377 15.655 25.4557 16.411C25.4737 17.149 25.5097 17.896 25.5637 18.652C25.6177 19.282 25.6807 19.813 25.7527 20.245C25.8427 20.677 25.9957 21.028 26.2117 21.298C26.4277 21.568 26.7337 21.766 27.1297 21.892C27.5257 22 28.0747 22.054 28.7767 22.054C29.4427 22.054 30.0997 22.027 30.7477 21.973C31.4137 21.901 32.0887 21.838 32.7727 21.784C33.3487 21.748 33.9247 21.721 34.5007 21.703C35.0767 21.667 35.6527 21.604 36.2287 21.514C36.3007 21.496 36.3637 21.478 36.4177 21.46C36.4897 21.442 36.5617 21.415 36.6337 21.379C36.8677 21.289 37.0567 21.145 37.2007 20.947C37.3447 20.731 37.4167 20.497 37.4167 20.245C37.4167 19.921 37.2997 19.66 37.0657 19.462C36.8497 19.264 36.5887 19.165 36.2827 19.165C36.1387 19.165 35.9947 19.174 35.8507 19.192C35.7247 19.192 35.5897 19.201 35.4457 19.219L34.5817 19.3C33.6097 19.39 32.6197 19.48 31.6117 19.57C30.6217 19.66 29.6407 19.705 28.6687 19.705C28.5787 19.705 28.4437 19.687 28.2637 19.651C28.1737 19.417 28.1017 19.075 28.0477 18.625C28.0117 18.157 27.9847 17.671 27.9667 17.167C27.9487 16.645 27.9307 16.15 27.9127 15.682C27.9127 15.196 27.9127 14.809 27.9127 14.521V13.522C28.3447 13.54 28.7767 13.558 29.2087 13.576C29.6407 13.576 30.0727 13.576 30.5047 13.576C31.0447 13.576 31.5847 13.567 32.1247 13.549C32.6647 13.531 33.2047 13.513 33.7447 13.495C33.9787 13.495 34.2217 13.495 34.4737 13.495C34.7257 13.477 34.9597 13.432 35.1757 13.36C35.3917 13.288 35.5807 13.18 35.7427 13.036C35.9227 12.892 36.0397 12.667 36.0937 12.361C36.1297 12.145 36.1387 11.929 36.1207 11.713C36.1207 11.479 36.1297 11.245 36.1477 11.011C36.1657 10.255 36.1837 9.508 36.2017 8.77C36.2377 8.032 36.2557 7.285 36.2557 6.529C36.2557 6.205 36.2377 5.89 36.2017 5.584C36.1837 5.26 36.1207 4.963 36.0127 4.693C35.9227 4.405 35.7787 4.153 35.5807 3.937C35.3827 3.721 35.1127 3.541 34.7707 3.397C34.4287 3.271 33.9067 3.163 33.2047 3.073C32.5207 2.983 31.7917 2.911 31.0177 2.857C30.2437 2.803 29.4877 2.767 28.7497 2.749C28.0297 2.731 27.4627 2.722 27.0487 2.722C26.7067 2.722 26.3917 2.848 26.1037 3.1C25.8337 3.352 25.6987 3.658 25.6987 4.018C25.6987 4.486 25.9147 4.81 26.3467 4.99C26.4547 5.026 26.6347 5.053 26.8867 5.071C27.1387 5.089 27.4087 5.107 27.6967 5.125C28.0027 5.125 28.2907 5.125 28.5607 5.125C28.8487 5.125 29.0647 5.125 29.2087 5.125C29.5327 5.143 29.8837 5.161 30.2617 5.179C30.6577 5.197 31.0447 5.224 31.4227 5.26C31.8187 5.278 32.1967 5.314 32.5567 5.368C32.9347 5.422 33.2857 5.494 33.6097 5.584ZM57.2533 6.07C56.3893 7.15 55.4173 8.149 54.3373 9.067C53.2753 9.967 52.1953 10.849 51.0973 11.713C50.8813 11.875 50.6563 12.046 50.4223 12.226C50.2063 12.388 49.9723 12.55 49.7203 12.712C49.5943 12.802 49.4593 12.892 49.3153 12.982C49.1893 13.054 49.0633 13.144 48.9373 13.252C48.7033 13.522 48.5863 13.81 48.5863 14.116C48.5863 14.44 48.6943 14.701 48.9103 14.899C49.1443 15.097 49.4143 15.196 49.7203 15.196C49.9183 15.196 50.1073 15.151 50.2873 15.061C50.5753 14.935 50.8363 14.773 51.0703 14.575C51.3223 14.377 51.5743 14.188 51.8263 14.008C52.2943 13.666 52.7443 13.315 53.1763 12.955C53.6263 12.595 54.0763 12.235 54.5263 11.875C54.8863 12.091 55.3273 12.361 55.8493 12.685C56.3713 12.991 56.8843 13.288 57.3883 13.576C57.8923 13.864 58.3423 14.125 58.7383 14.359C59.1343 14.575 59.3773 14.701 59.4673 14.737C59.5573 14.773 59.6383 14.8 59.7103 14.818C59.8003 14.836 59.8903 14.845 59.9803 14.845C60.3223 14.845 60.6283 14.719 60.8983 14.467C61.1863 14.215 61.3303 13.909 61.3303 13.549C61.3303 13.261 61.2223 13.009 61.0063 12.793C61.0063 12.793 60.8443 12.703 60.5203 12.523C60.2143 12.325 59.8273 12.091 59.3593 11.821C58.9093 11.551 58.4233 11.263 57.9013 10.957C57.3973 10.651 56.9383 10.372 56.5243 10.12C57.0283 9.706 57.5053 9.265 57.9553 8.797C58.4233 8.311 58.8553 7.807 59.2513 7.285C59.4493 7.015 59.6383 6.709 59.8183 6.367C59.9983 6.007 60.0883 5.647 60.0883 5.287C60.0883 4.963 60.0163 4.702 59.8723 4.504C59.7283 4.288 59.5483 4.126 59.3323 4.018C59.1163 3.892 58.8643 3.811 58.5763 3.775C58.3063 3.721 58.0363 3.694 57.7663 3.694C57.3163 3.694 56.8753 3.712 56.4433 3.748C56.0113 3.766 55.5703 3.793 55.1203 3.829C55.1383 3.739 55.1473 3.649 55.1473 3.559C55.1473 3.469 55.1563 3.379 55.1743 3.289C55.2103 2.983 55.2553 2.677 55.3093 2.371C55.3813 2.047 55.4173 1.732 55.4173 1.426C55.4173 1.102 55.3003 0.840999 55.0663 0.643C54.8503 0.444999 54.5893 0.345999 54.2833 0.345999C53.9233 0.345999 53.6443 0.435999 53.4463 0.615999C53.2483 0.795998 53.1043 1.021 53.0143 1.291C52.9243 1.561 52.8613 1.849 52.8253 2.155C52.8073 2.461 52.7803 2.749 52.7443 3.019C52.7083 3.199 52.6813 3.37 52.6633 3.532C52.6453 3.694 52.6183 3.865 52.5823 4.045L50.5303 4.234C50.3503 4.252 50.1703 4.261 49.9903 4.261C49.8283 4.261 49.6573 4.279 49.4773 4.315C49.4233 4.333 49.3603 4.351 49.2883 4.369C49.2343 4.369 49.1803 4.387 49.1263 4.423C48.8923 4.549 48.7033 4.711 48.5593 4.909C48.4153 5.107 48.3433 5.332 48.3433 5.584C48.3433 5.908 48.4513 6.169 48.6673 6.367C48.9013 6.565 49.1713 6.664 49.4773 6.664C49.8913 6.664 50.2873 6.637 50.6653 6.583C51.0613 6.529 51.4663 6.484 51.8803 6.448C52.7803 6.358 53.6713 6.286 54.5533 6.232C55.4533 6.16 56.3533 6.106 57.2533 6.07ZM66.4333 15.304C66.7753 15.304 67.0813 15.178 67.3513 14.926C67.6393 14.674 67.7833 14.368 67.7833 14.008C67.7833 13.756 67.7743 13.504 67.7563 13.252C67.7383 12.982 67.7203 12.721 67.7023 12.469C67.6843 12.235 67.6663 11.848 67.6483 11.308C67.6483 10.75 67.6303 10.111 67.5943 9.391L68.5123 9.364H69.1603L70.4563 9.391H71.1043C71.4463 9.391 71.7523 9.265 72.0223 9.013C72.3103 8.761 72.4543 8.455 72.4543 8.095C72.4543 7.825 72.3643 7.591 72.1843 7.393C72.0223 7.195 71.8063 7.078 71.5363 7.042C71.4103 7.006 71.2843 6.997 71.1583 7.015C71.0323 7.015 70.9063 7.015 70.7803 7.015H69.0523L67.7563 6.988H67.5133C67.4773 6.394 67.4413 5.827 67.4053 5.287C67.3873 4.729 67.3603 4.234 67.3243 3.802C67.3063 3.352 67.2793 2.983 67.2433 2.695C67.2253 2.407 67.1983 2.227 67.1623 2.155C66.9463 1.723 66.5953 1.507 66.1093 1.507C65.7673 1.507 65.4523 1.633 65.1643 1.885C64.8943 2.137 64.7593 2.443 64.7593 2.803C64.7593 3.037 64.7683 3.271 64.7863 3.505C64.8043 3.721 64.8223 3.946 64.8403 4.18C64.8763 4.594 64.9033 5.008 64.9213 5.422C64.9393 5.818 64.9573 6.223 64.9753 6.637C64.9753 6.817 64.9843 7.132 65.0023 7.582C65.0203 8.032 65.0383 8.545 65.0563 9.121C65.0743 9.679 65.0923 10.273 65.1103 10.903C65.1283 11.515 65.1463 12.091 65.1643 12.631C65.2003 13.153 65.2273 13.603 65.2453 13.981C65.2813 14.341 65.3173 14.557 65.3533 14.629C65.5693 15.079 65.9293 15.304 66.4333 15.304ZM62.1133 18.976C62.3293 18.976 62.5453 18.976 62.7613 18.976C62.9953 18.976 63.2203 18.985 63.4363 19.003C62.8243 19.345 62.2033 19.66 61.5733 19.948C60.9433 20.236 60.3133 20.533 59.6833 20.839L55.7413 22.675L53.7433 23.566C53.5813 23.656 53.4103 23.728 53.2303 23.782C53.0503 23.854 52.8883 23.953 52.7443 24.079C52.3843 24.313 52.2043 24.646 52.2043 25.078C52.2043 25.402 52.3123 25.663 52.5283 25.861C52.7623 26.059 53.0323 26.158 53.3383 26.158C53.5003 26.158 53.6983 26.104 53.9323 25.996C54.1843 25.906 54.3823 25.825 54.5263 25.753L57.9553 24.16C58.3693 23.962 58.8193 23.755 59.3053 23.539C59.7913 23.341 60.2953 23.116 60.8173 22.864C60.8353 22.882 60.8533 22.891 60.8713 22.891L61.0063 22.972C61.0243 22.972 61.0333 22.972 61.0333 22.972C61.0333 22.99 61.0423 22.999 61.0603 22.999C61.3303 23.161 61.7443 23.404 62.3023 23.728C62.8603 24.052 63.4453 24.376 64.0573 24.7C64.6693 25.042 65.2543 25.33 65.8123 25.564C66.3703 25.816 66.7753 25.942 67.0273 25.942C67.3693 25.942 67.6753 25.816 67.9453 25.564C68.2333 25.312 68.3773 25.006 68.3773 24.646C68.3773 24.304 68.2423 24.034 67.9723 23.836C67.9003 23.782 67.7923 23.719 67.6483 23.647C67.5043 23.575 67.3423 23.503 67.1623 23.431C66.9823 23.359 66.8113 23.287 66.6493 23.215C66.4873 23.143 66.3523 23.08 66.2443 23.026C65.7763 22.81 65.3173 22.576 64.8673 22.324C64.4173 22.072 63.9673 21.82 63.5173 21.568C64.2013 21.208 64.8493 20.848 65.4613 20.488C66.0733 20.11 66.5863 19.741 67.0003 19.381C67.2163 19.183 67.4143 18.967 67.5943 18.733C67.7743 18.499 67.8643 18.229 67.8643 17.923C67.8643 17.635 67.7923 17.41 67.6483 17.248C67.5043 17.086 67.3243 16.969 67.1083 16.897C66.9103 16.807 66.6853 16.753 66.4333 16.735C66.1813 16.699 65.9473 16.681 65.7313 16.681C64.9933 16.645 64.2643 16.627 63.5443 16.627C62.8243 16.627 62.0863 16.627 61.3303 16.627C61.1143 16.627 60.7543 16.636 60.2503 16.654C59.7463 16.654 59.1793 16.663 58.5493 16.681C57.9193 16.681 57.2533 16.69 56.5513 16.708C55.8673 16.726 55.2193 16.753 54.6073 16.789C54.0133 16.807 53.4913 16.834 53.0413 16.87C52.6093 16.906 52.3393 16.951 52.2313 17.005C51.9973 17.113 51.7993 17.275 51.6373 17.491C51.4933 17.689 51.4213 17.923 51.4213 18.193C51.4213 18.499 51.5293 18.751 51.7453 18.949C51.9793 19.147 52.2493 19.246 52.5553 19.246C52.9333 19.246 53.3113 19.237 53.6893 19.219C54.0673 19.183 54.4543 19.156 54.8503 19.138C57.2443 19.03 59.6653 18.976 62.1133 18.976ZM90.5898 20.515L90.5088 23.215V24.565C90.5088 24.889 90.6168 25.15 90.8328 25.348C91.0668 25.546 91.3368 25.645 91.6428 25.645C91.9668 25.645 92.2458 25.537 92.4798 25.321C92.7318 25.123 92.9029 24.862 92.9929 24.538C93.0288 24.412 93.0378 24.277 93.0198 24.133C93.0198 23.989 93.0198 23.845 93.0198 23.701C93.0198 22.909 93.0288 22.126 93.0468 21.352C93.0828 20.56 93.1008 19.759 93.1008 18.949C93.1008 16.663 93.0738 14.395 93.0198 12.145C92.9838 9.877 92.9298 7.6 92.8579 5.314C92.8579 5.188 92.8579 4.99 92.8579 4.72C92.8579 4.432 92.8488 4.144 92.8308 3.856C92.8128 3.55 92.7948 3.271 92.7768 3.019C92.7588 2.767 92.7408 2.605 92.7228 2.533C92.6328 2.299 92.4888 2.119 92.2908 1.993C92.1108 1.867 91.8948 1.804 91.6428 1.804C91.3008 1.804 90.9858 1.93 90.6978 2.182C90.4278 2.434 90.2928 2.74 90.2928 3.1C90.2928 4 90.3108 4.891 90.3468 5.773C90.3828 6.655 90.4188 7.546 90.4548 8.446C90.5268 10.462 90.5628 12.478 90.5628 14.494C90.5808 16.492 90.5898 18.499 90.5898 20.515ZM73.9308 5.503C74.7948 5.503 75.6588 5.494 76.5228 5.476C77.4048 5.458 78.2778 5.431 79.1418 5.395C79.5378 5.377 79.9248 5.359 80.3028 5.341C80.6988 5.323 81.0948 5.314 81.4908 5.314H81.9768C82.0668 5.314 82.1478 5.314 82.2198 5.314C82.2918 5.314 82.3728 5.323 82.4628 5.341C82.4808 5.413 82.4898 5.485 82.4898 5.557C82.5078 5.611 82.5168 5.683 82.5168 5.773C82.5168 6.277 82.4628 6.781 82.3548 7.285C82.2468 7.771 82.1208 8.257 81.9768 8.743C81.4908 10.489 80.8518 12.154 80.0598 13.738C79.2858 15.322 78.3048 16.807 77.1168 18.193C76.8108 18.535 76.4958 18.868 76.1718 19.192C75.8658 19.516 75.5418 19.831 75.1998 20.137C75.0558 20.263 74.9028 20.38 74.7408 20.488C74.5788 20.596 74.4348 20.722 74.3088 20.866C74.0928 21.118 73.9848 21.388 73.9848 21.676C73.9848 22 74.0928 22.261 74.3088 22.459C74.5428 22.657 74.8128 22.756 75.1188 22.756C75.2988 22.756 75.4878 22.702 75.6858 22.594C75.8838 22.504 76.0728 22.387 76.2528 22.243C76.4508 22.099 76.6308 21.946 76.7928 21.784C76.9548 21.622 77.1078 21.478 77.2518 21.352C79.0158 19.714 80.4828 17.86 81.6528 15.79C82.8408 13.72 83.7498 11.533 84.3798 9.229C84.5598 8.617 84.7128 8.005 84.8388 7.393C84.9648 6.763 85.0278 6.133 85.0278 5.503C85.0278 5.107 84.9378 4.684 84.7578 4.234C84.6318 3.91 84.4518 3.667 84.2178 3.505C84.0018 3.325 83.7588 3.199 83.4888 3.127C83.2188 3.037 82.9308 2.983 82.6248 2.965C82.3188 2.947 82.0218 2.938 81.7338 2.938C81.1038 2.938 80.4738 2.956 79.8438 2.992C79.2138 3.028 78.5838 3.064 77.9538 3.1H76.1178C75.9918 3.1 75.8118 3.1 75.5778 3.1C75.3438 3.1 75.1008 3.109 74.8488 3.127C74.6148 3.127 74.3808 3.136 74.1468 3.154C73.9308 3.172 73.7688 3.199 73.6608 3.235C73.4088 3.325 73.2018 3.478 73.0398 3.694C72.8778 3.91 72.7968 4.153 72.7968 4.423C72.7968 4.747 72.9048 5.008 73.1208 5.206C73.3548 5.404 73.6248 5.503 73.9308 5.503Z" fill="white"/>
<path d="M116.896 13.2076C116.075 15.6642 115.047 17.5848 113.578 18.8997C112.127 20.1987 110.147 20.9924 107.239 20.9999C104.04 20.7237 101.766 19.6635 100.286 18.0507C98.7993 16.4302 98 14.1275 98 11.1519C98 8.18798 98.792 6.26196 100.116 4.93442C101.47 3.57623 103.509 2.71346 106.262 2.1585C111.776 1.04713 117.874 5.92644 116.896 13.2076Z" stroke="white" stroke-width="2"/>
<path d="M114 18.5L116 21L118 23.5L119.5 25.1561" stroke="white" stroke-width="2" stroke-linecap="round"/>
<path d="M109.5 6L109 8L108.5 10L108.5 12L108 14.5" stroke="white" stroke-linecap="round"/>
<path d="M109.5 6C109.5 6 109.851 7.58333 110.806 8.25C111.761 8.91667 112 9.91667 112 10.3333C112 10.8889 111.841 12 111.204 12" stroke="white" stroke-linecap="round"/>
<path d="M108.5 14.5C108.5 15.3284 106.881 16.5 105.5 16.5C104.119 16.5 103.5 16.5 103 15.5C102.277 14.0546 104.119 13.5 105.5 13.5C106.881 13.5 108.5 13.6716 108.5 14.5Z" fill="white"/>
</svg>
