<svg viewbox="0 0 275 62" fill="none" xmlns="http://www.w3.org/2000/svg">
  <path d="M15.232 25.71c0 .98.49 1.471 1.472 1.471h28.672c.981 0 1.707.342 2.176 1.024.47.683.704 1.494.704 2.432 0 .939-.235 1.75-.704 2.432-.47.683-1.195 1.024-2.176 1.024H12.352c-2.048 0-3.477-.384-4.288-1.152-.768-.768-1.152-2.154-1.152-4.16V8.941c0-1.194.405-2.07 1.216-2.624.853-.554 1.835-.832 2.944-.832 1.11 0 2.07.278 2.88.832.853.555 1.28 1.43 1.28 2.624V25.71ZM2.88 52.972c-.981 0-1.707-.341-2.176-1.024C.234 51.267 0 50.456 0 49.517c0-.938.235-1.75.704-2.432.47-.682 1.195-1.024 2.176-1.024h20.096v-15.36h8.192v15.36h20.096c.981 0 1.707.342 2.176 1.024.47.683.704 1.494.704 2.432 0 .939-.235 1.75-.704 2.432-.47.683-1.195 1.024-2.176 1.024H2.88ZM65.098 44.461c-2.048 0-3.477-.384-4.288-1.152-.768-.768-1.152-2.154-1.152-4.16V27.373c0-2.005.384-3.392 1.152-4.16.81-.768 2.24-1.152 4.288-1.152h8.576c.981 0 1.472-.49 1.472-1.472v-5.568c0-.981-.49-1.472-1.472-1.472h-11.2c-.981 0-1.707-.341-2.176-1.024-.47-.682-.704-1.493-.704-2.432 0-.938.235-1.75.704-2.432.47-.682 1.195-1.024 2.176-1.024h15.104c2.048 0 3.456.384 4.224 1.152.81.768 1.216 2.155 1.216 4.16v11.456c0 2.006-.405 3.392-1.216 4.16-.768.768-2.176 1.152-4.224 1.152h-8.576c-.981 0-1.472.49-1.472 1.472v5.888c0 .982.49 1.472 1.472 1.472 2.304 0 4.693-.064 7.168-.192 2.517-.128 4.8-.341 6.848-.64.981-.128 1.75.107 2.304.704.555.555.875 1.302.96 2.24.085.982-.043 1.835-.384 2.56-.341.726-.981 1.174-1.92 1.344-1.365.214-3.605.427-6.72.64-3.115.17-7.168.256-12.16.256Zm31.36-22.912h5.12V5.485c0-1.11.384-1.92 1.152-2.432.768-.512 1.643-.768 2.624-.768.981 0 1.856.256 2.624.768s1.152 1.323 1.152 2.432v49.536c0 1.11-.384 1.92-1.152 2.432-.768.512-1.643.768-2.624.768-.981 0-1.856-.256-2.624-.768s-1.152-1.322-1.152-2.432v-26.56h-5.12v23.872c0 1.11-.384 1.92-1.152 2.432-.768.512-1.643.768-2.624.768a4.515 4.515 0 0 1-2.56-.768c-.768-.512-1.152-1.322-1.152-2.432V6.125c0-1.11.384-1.92 1.152-2.432a4.515 4.515 0 0 1 2.56-.768c.981 0 1.856.256 2.624.768s1.152 1.323 1.152 2.432V21.55ZM120.276 15.917c-.981 0-1.707-.341-2.176-1.024-.469-.682-.704-1.493-.704-2.432 0-.938.235-1.75.704-2.432.469-.682 1.195-1.024 2.176-1.024h9.92V5.101c0-1.194.405-2.07 1.216-2.624.853-.554 1.813-.832 2.88-.832s2.005.278 2.816.832c.853.555 1.28 1.43 1.28 2.624v3.904h9.28c.981 0 1.707.342 2.176 1.024.469.683.704 1.494.704 2.432 0 .939-.235 1.75-.704 2.432-.469.683-1.195 1.024-2.176 1.024h-9.28v1.472c0 1.622.277 2.966.832 4.032.597 1.067 1.515 2.048 2.752 2.944a124.736 124.736 0 0 0 7.104 4.736c.896.555 1.408 1.323 1.536 2.304a3.809 3.809 0 0 1-.576 2.624c-.469.683-1.173 1.216-2.112 1.6-.896.342-1.856.192-2.88-.448a463.624 463.624 0 0 0-2.88-1.856 80.292 80.292 0 0 1-3.136-2.112c-1.621-1.11-2.752-2.005-3.392-2.688-.64-.682-1.045-1.301-1.216-1.856h-.064c-.171.726-.619 1.472-1.344 2.24-.683.726-1.835 1.643-3.456 2.752l-3.648 2.432a115.379 115.379 0 0 1-3.712 2.368c-.469.299-.939.47-1.408.512a3.59 3.59 0 0 1-1.344-.256 3.975 3.975 0 0 1-1.152-.704 4.336 4.336 0 0 1-.832-.96 4.707 4.707 0 0 1-.64-2.624c.043-.981.555-1.77 1.536-2.368a339.015 339.015 0 0 0 4.032-2.56 108.238 108.238 0 0 0 4.224-2.88c1.237-.896 2.133-1.877 2.688-2.944.597-1.066.896-2.41.896-4.032v-1.728h-9.92Zm48.512.128c1.024 0 1.771.342 2.24 1.024.469.683.704 1.515.704 2.496 0 .982-.235 1.835-.704 2.56-.469.683-1.216 1.024-2.24 1.024h-6.016v10.688c0 1.195-.427 2.07-1.28 2.624-.811.555-1.749.832-2.816.832-1.067 0-2.027-.277-2.88-.832-.811-.554-1.216-1.43-1.216-2.624V5.741c0-1.194.405-2.07 1.216-2.624.853-.554 1.813-.832 2.88-.832s2.005.278 2.816.832c.853.555 1.28 1.43 1.28 2.624v10.304h6.016Zm-20.864 30.592v.256c0 .982.405 1.835 1.216 2.56.811.683 1.984 1.323 3.52 1.92 2.005.81 3.776 1.494 5.312 2.048 1.579.555 3.285 1.13 5.12 1.728.853.299 1.429.854 1.728 1.664.299.81.277 1.643-.064 2.496-.341.81-.853 1.45-1.536 1.92s-1.536.534-2.56.192a220.675 220.675 0 0 1-4.928-1.664c-1.579-.554-3.2-1.173-4.864-1.856-2.56-1.024-4.331-1.962-5.312-2.816-.939-.81-1.493-1.514-1.664-2.112h-.064c-.171.64-.747 1.387-1.728 2.24-.981.896-2.752 1.856-5.312 2.88a101.274 101.274 0 0 1-4.864 1.856c-1.579.555-3.221 1.11-4.928 1.664-1.024.342-1.877.278-2.56-.192-.683-.47-1.195-1.13-1.536-1.984-.341-.853-.384-1.706-.128-2.56.299-.853.896-1.43 1.792-1.728 1.835-.597 3.52-1.173 5.056-1.728a125.61 125.61 0 0 0 5.376-2.048c1.536-.597 2.709-1.237 3.52-1.92.811-.725 1.216-1.578 1.216-2.56v-.256h-13.184c-.981 0-1.707-.32-2.176-.96-.427-.682-.64-1.472-.64-2.368 0-.938.213-1.728.64-2.368.469-.682 1.195-1.024 2.176-1.024h34.56c.981 0 1.685.342 2.112 1.024.469.64.704 1.43.704 2.368 0 .896-.235 1.686-.704 2.368-.427.64-1.131.96-2.112.96h-13.184ZM180.702 13.613c-.981 0-1.707-.341-2.176-1.024-.469-.682-.704-1.493-.704-2.432 0-.981.235-1.813.704-2.496.469-.682 1.195-1.024 2.176-1.024h19.264c2.048 0 3.456.384 4.224 1.152.811.768 1.216 2.155 1.216 4.16v7.104c0 1.792-.107 3.414-.32 4.864a15.557 15.557 0 0 1-1.216 4.16c-.555 1.28-1.344 2.539-2.368 3.776-1.024 1.238-2.368 2.539-4.032 3.904-1.664 1.366-3.691 2.838-6.08 4.416-2.347 1.579-5.141 3.35-8.384 5.312-.896.555-1.835.662-2.816.32-.939-.384-1.664-.96-2.176-1.728-.512-.768-.768-1.664-.768-2.688 0-1.024.469-1.834 1.408-2.432a289.886 289.886 0 0 0 7.424-4.608c2.091-1.365 3.819-2.581 5.184-3.648 1.408-1.066 2.496-2.048 3.264-2.944.811-.896 1.408-1.792 1.792-2.688a8.736 8.736 0 0 0 .768-2.88c.128-.981.192-2.112.192-3.392v-3.712c0-.981-.491-1.472-1.472-1.472h-15.104Zm43.072 41.152c0 1.195-.427 2.07-1.28 2.624-.811.555-1.771.832-2.88.832-1.067 0-2.027-.277-2.88-.832-.811-.554-1.216-1.43-1.216-2.624V5.741c0-1.194.405-2.07 1.216-2.624.853-.554 1.813-.832 2.88-.832 1.109 0 2.069.278 2.88.832.853.555 1.28 1.43 1.28 2.624v49.024Z" fill="currentColor" />
  <path fill-rule="evenodd" clip-rule="evenodd" d="m257.388 41.178 10.193 17.656a3.647 3.647 0 0 0 6.317-3.647L263.704 37.53l1.637-.945a1 1 0 0 0 .366-1.366l-1.688-2.923c5.235-6.13 6.324-15.127 2.064-22.506-5.406-9.363-17.379-12.57-26.742-7.165-9.363 5.406-12.571 17.379-7.166 26.742 4.264 7.385 12.614 10.941 20.546 9.461l1.684 2.916a1 1 0 0 0 1.366.366l1.617-.933Zm-2.471-11.573c5.537-3.197 7.434-10.277 4.238-15.814-3.197-5.536-10.277-7.434-15.814-4.237-5.537 3.197-7.434 10.277-4.237 15.814 3.196 5.537 10.276 7.434 15.813 4.237Z" fill="currentColor" />
</svg>