<svg width="27" height="27" viewBox="0 0 27 27" fill="none" xmlns="http://www.w3.org/2000/svg">
<path d="M22.0296 13.6227C21.2082 16.0793 20.1807 17.9999 18.7116 19.3147C17.2603 20.6137 15.2806 21.4074 12.3728 21.415C9.17329 21.1388 6.89958 20.0786 5.41983 18.4658C3.93299 16.8453 3.13367 14.5426 3.13367 11.567C3.13367 8.60302 3.92571 6.677 5.24948 5.34946C6.6038 3.99127 8.64226 3.1285 11.3955 2.57354C16.9092 1.46217 23.0075 6.34148 22.0296 13.6227Z" stroke="#2A313C" stroke-width="2"/>
<path d="M19.1337 18.915L21.1337 21.415L23.1337 23.915L24.6337 25.5711" stroke="#2A313C" stroke-width="2" stroke-linecap="round"/>
<path d="M14.6337 6.41504L14.1337 8.41504L13.6337 10.415L13.6337 12.415L13.1337 14.915" stroke="#2A313C" stroke-linecap="round"/>
<path d="M14.6337 6.41504C14.6337 6.41504 14.9844 7.99837 15.9396 8.66504C16.8949 9.33171 17.1337 10.3317 17.1337 10.7484C17.1337 11.3039 16.9745 12.415 16.3376 12.415" stroke="#2A313C" stroke-linecap="round"/>
<path d="M13.6337 14.915C13.6337 15.7435 12.0144 16.915 10.6337 16.915C9.25295 16.915 8.63368 16.915 8.13367 15.915C7.41095 14.4696 9.25295 13.915 10.6337 13.915C12.0144 13.915 13.6337 14.0866 13.6337 14.915Z" fill="#2A313C"/>
</svg>
