<svg width="24" height="26" viewBox="0 0 24 26" fill="none" xmlns="http://www.w3.org/2000/svg">
<path d="M19.8959 12.2076C19.0745 14.6642 18.047 16.5848 16.578 17.8997C15.1266 19.1987 13.1469 19.9924 10.2392 19.9999C7.03962 19.7237 4.76591 18.6635 3.28617 17.0507C1.79932 15.4302 1 13.1275 1 10.1519C1 7.18798 1.79205 5.26196 3.11581 3.93442C4.47013 2.57623 6.50859 1.71346 9.26186 1.1585C14.7755 0.0471307 20.8738 4.92644 19.8959 12.2076Z" stroke="#2A313C" stroke-width="2"/>
<path d="M17 17.5L19 20L21 22.5L22.5 24.1561" stroke="#2A313C" stroke-width="2" stroke-linecap="round"/>
<path d="M12.5 5L12 7L11.5 9L11.5 11L11 13.5" stroke="#2A313C" stroke-linecap="round"/>
<path d="M12.5 5C12.5 5 12.8507 6.58333 13.806 7.25C14.7612 7.91667 15 8.91667 15 9.33333C15 9.88889 14.8408 11 14.204 11" stroke="#2A313C" stroke-linecap="round"/>
<path d="M11.5 13.5C11.5 14.3284 9.8807 15.5 8.49999 15.5C7.11928 15.5 6.50001 15.5 6 14.5C5.27728 13.0546 7.11928 12.5 8.49999 12.5C9.8807 12.5 11.5 12.6716 11.5 13.5Z" fill="#2A313C"/>
</svg>
