<svg width="175" height="174" viewBox="0 0 175 174" fill="none" xmlns="http://www.w3.org/2000/svg">
  <path fill-rule="evenodd" clip-rule="evenodd" d="M2.3883 44.3035L26.8991 3.04075C27.0268 2.81603 27.1686 2.60037 27.3233 2.39496C27.816 1.73796 28.4244 1.20681 29.1027 0.813215C29.837 0.385313 30.6704 0.108853 31.5601 0.0266382C31.7825 0.00563514 32.0064 -0.00302521 32.2308 0.000931797H142.782C143.012 -0.00313136 143.242 0.00610897 143.471 0.0283554C144.318 0.109236 145.113 0.366241 145.821 0.762315C146.579 1.18496 147.253 1.77702 147.783 2.5226C147.898 2.68405 148.005 2.85146 148.104 3.02424L172.624 44.3035C173.542 45.8488 174.027 47.6131 174.027 49.4105V167.341C174.027 167.534 174.018 167.725 174 167.913V169.421C174 171.63 172.209 173.421 170 173.421H5.00001C2.79087 173.421 1 171.63 1 169.421V167.757C0.990611 167.62 0.98584 167.481 0.98584 167.341V49.4105C0.98584 47.6131 1.47032 45.8488 2.3883 44.3035ZM15.6818 45.4212H159.331L139.479 12.0009H35.5341L15.6818 45.4212ZM13 57.4212V161.421H162V57.4212H13ZM74.4999 96.3982C74.5125 97.5027 73.6274 98.4084 72.5229 98.421C68.467 98.4676 60.4818 98.484 57.0014 98.4864C55.8968 98.4872 55.0008 97.5923 55 96.4878C54.9992 95.3832 55.894 94.4872 56.9986 94.4864C60.4819 94.484 68.446 94.4675 72.4771 94.4213C73.5816 94.4086 74.4872 95.2937 74.4999 96.3982ZM72 108.204C72 112.07 68.866 115.204 65 115.204C61.134 115.204 58 112.07 58 108.204C58 104.338 61.134 101.204 65 101.204C68.866 101.204 72 104.338 72 108.204ZM117.152 108.204C117.152 112.07 114.018 115.204 110.152 115.204C106.286 115.204 103.152 112.07 103.152 108.204C103.152 104.338 106.286 101.204 110.152 101.204C114.018 101.204 117.152 104.338 117.152 108.204ZM76 126.421C74.8954 126.421 74 127.317 74 128.421C74 129.526 74.8954 130.421 76 130.421H76.0094H76.0189H76.0284H76.0381H76.0477H76.0575H76.0673H76.0772H76.0872H76.0972H76.1073H76.1175H76.1277H76.138H76.1484H76.1588H76.1694H76.1799H76.1906H76.2013H76.2121H76.2229H76.2339H76.2448H76.2559H76.267H76.2782H76.2895H76.3008H76.3122H76.3236H76.3352H76.3467H76.3584H76.3701H76.3819H76.3938H76.4057H76.4177H76.4297H76.4419H76.4541H76.4663H76.4786H76.491H76.5035H76.516H76.5286H76.5412H76.5539H76.5667H76.5796H76.5925H76.6054H76.6185H76.6316H76.6448H76.658H76.6713H76.6847H76.6981H76.7116H76.7251H76.7387H76.7524H76.7662H76.78H76.7939H76.8078H76.8218H76.8359H76.85H76.8642H76.8785H76.8928H76.9072H76.9216H76.9361H76.9507H76.9653H76.98H76.9948H77.0096H77.0245H77.0395H77.0545H77.0695H77.0847H77.0999H77.1151H77.1304H77.1458H77.1613H77.1768H77.1923H77.208H77.2237H77.2394H77.2552H77.2711H77.287H77.303H77.3191H77.3352H77.3514H77.3676H77.3839H77.4003H77.4167H77.4332H77.4497H77.4663H77.483H77.4997H77.5165H77.5333H77.5502H77.5672H77.5842H77.6013H77.6184H77.6356H77.6528H77.6702H77.6875H77.705H77.7225H77.74H77.7576H77.7753H77.793H77.8108H77.8286H77.8465H77.8645H77.8825H77.9006H77.9187H77.9369H77.9551H77.9734H77.9918H78.0102H78.0287H78.0472H78.0658H78.0845H78.1032H78.1219H78.1407H78.1596H78.1786H78.1975H78.2166H78.2357H78.2548H78.2741H78.2933H78.3127H78.332H78.3515H78.371H78.3905H78.4101H78.4298H78.4495H78.4693H78.4891H78.509H78.5289H78.5489H78.5689H78.589H78.6092H78.6294H78.6497H78.67H78.6904H78.7108H78.7313H78.7518H78.7724H78.793H78.8137H78.8345H78.8553H78.8762H78.8971H78.918H78.939H78.9601H78.9812H79.0024H79.0237H79.0449H79.0663H79.0877H79.1091H79.1306H79.1522H79.1738H79.1954H79.2171H79.2389H79.2607H79.2825H79.3045H79.3264H79.3484H79.3705H79.3926H79.4148H79.437H79.4593H79.4816H79.504H79.5264H79.5489H79.5714H79.594H79.6166H79.6393H79.6621H79.6848H79.7077H79.7306H79.7535H79.7765H79.7995H79.8226H79.8457H79.8689H79.8921H79.9154H79.9388H79.9621H79.9856H80.009H80.0326H80.0562H80.0798H80.1035H80.1272H80.151H80.1748H80.1986H80.2226H80.2465H80.2705H80.2946H80.3187H80.3429H80.3671H80.3913H80.4156H80.44H80.4644H80.4888H80.5133H80.5379H80.5625H80.5871H80.6118H80.6365H80.6613H80.6861H80.711H80.7359H80.7609H80.7859H80.8109H80.836H80.8612H80.8864H80.9116H80.9369H80.9622H80.9876H81.013H81.0385H81.064H81.0896H81.1152H81.1408H81.1665H81.1923H81.2181H81.2439H81.2698H81.2957H81.3217H81.3477H81.3737H81.3998H81.426H81.4522H81.4784H81.5047H81.531H81.5574H81.5838H81.6102H81.6367H81.6633H81.6898H81.7165H81.7431H81.7699H81.7966H81.8234H81.8503H81.8771H81.9041H81.931H81.958H81.9851H82.0122H82.0393H82.0665H82.0938H82.121H82.1483H82.1757H82.2031H82.2305H82.258H82.2855H82.3131H82.3407H82.3683H82.396H82.4237H82.4515H82.4793H82.5071H82.535H82.563H82.5909H82.6189H82.647H82.6751H82.7032H82.7314H82.7596H82.7878H82.8161H82.8445H82.8728H82.9012H82.9297H82.9582H82.9867H83.0153H83.0439H83.0725H83.1012H83.13H83.1587H83.1875H83.2164H83.2453H83.2742H83.3031H83.3321H83.3612H83.3902H83.4193H83.4485H83.4777H83.5069H83.5362H83.5655H83.5948H83.6242H83.6536H83.6831H83.7125H83.7421H83.7716H83.8012H83.8309H83.8605H83.8903H83.92H83.9498H83.9796H84.0095H84.0394H84.0693H84.0993H84.1292H84.1593H84.1894H84.2195H84.2496H84.2798H84.31H84.3403H84.3706H84.4009H84.4312H84.4616H84.4921H84.5225H84.553H84.5836H84.6141H84.6447H84.6754H84.706H84.7367H84.7675H84.7983H84.8291H84.8599H84.8908H84.9217H84.9526H84.9836H85.0146H85.0457H85.0768H85.1079H85.139H85.1702H85.2014H85.2326H85.2639H85.2952H85.3266H85.3579H85.3894H85.4208H85.4523H85.4838H85.5153H85.5469H85.5785H85.6101H85.6418H85.6735H85.7052H85.737H85.7688H85.8006H85.8324H85.8643H85.8962H85.9282H85.9602H85.9922H86.0242H86.0563H86.0884H86.1205H86.1527H86.1849H86.2171H86.2494H86.2817H86.314H86.3463H86.3787H86.4111H86.4436H86.476H86.5085H86.541H86.5736H86.6062H86.6388H86.6714H86.7041H86.7368H86.7695H86.8023H86.8351H86.8679H86.9007H86.9336H86.9665H86.9994H87.0324H87.0654H87.0984H87.1314H87.1645H87.1976H87.2307H87.2639H87.297H87.3302H87.3635H87.3967H87.43H87.4633H87.4967H87.5301H87.5634H87.5969H87.6303H87.6638H87.6973H87.7308H87.7644H87.798H87.8316H87.8652H87.8989H87.9325H87.9663H88H88.0337H88.0675H88.1011H88.1348H88.1684H88.202H88.2356H88.2692H88.3027H88.3362H88.3697H88.4031H88.4366H88.4699H88.5033H88.5367H88.57H88.6033H88.6365H88.6698H88.703H88.7361H88.7693H88.8024H88.8355H88.8686H88.9016H88.9346H88.9676H89.0006H89.0335H89.0664H89.0993H89.1321H89.1649H89.1977H89.2305H89.2632H89.2959H89.3286H89.3612H89.3938H89.4264H89.459H89.4915H89.524H89.5564H89.5889H89.6213H89.6537H89.686H89.7183H89.7506H89.7829H89.8151H89.8473H89.8795H89.9116H89.9437H89.9758H90.0078H90.0398H90.0718H90.1038H90.1357H90.1676H90.1994H90.2312H90.263H90.2948H90.3265H90.3582H90.3899H90.4215H90.4531H90.4847H90.5162H90.5477H90.5792H90.6106H90.6421H90.6734H90.7048H90.7361H90.7674H90.7986H90.8298H90.861H90.8921H90.9232H90.9543H90.9854H91.0164H91.0474H91.0783H91.1092H91.1401H91.1709H91.2017H91.2325H91.2633H91.294H91.3246H91.3553H91.3859H91.4164H91.447H91.4775H91.5079H91.5384H91.5688H91.5991H91.6294H91.6597H91.69H91.7202H91.7504H91.7805H91.8106H91.8407H91.8708H91.9007H91.9307H91.9606H91.9905H92.0204H92.0502H92.08H92.1097H92.1395H92.1691H92.1988H92.2284H92.2579H92.2875H92.3169H92.3464H92.3758H92.4052H92.4345H92.4638H92.4931H92.5223H92.5515H92.5807H92.6098H92.6388H92.6679H92.6969H92.7258H92.7547H92.7836H92.8125H92.8413H92.87H92.8988H92.9275H92.9561H92.9847H93.0133H93.0418H93.0703H93.0988H93.1272H93.1555H93.1839H93.2122H93.2404H93.2686H93.2968H93.3249H93.353H93.3811H93.4091H93.437H93.465H93.4929H93.5207H93.5485H93.5763H93.604H93.6317H93.6593H93.6869H93.7145H93.742H93.7695H93.7969H93.8243H93.8517H93.879H93.9062H93.9335H93.9607H93.9878H94.0149H94.042H94.069H94.0959H94.1229H94.1497H94.1766H94.2034H94.2301H94.2569H94.2835H94.3102H94.3367H94.3633H94.3898H94.4162H94.4426H94.469H94.4953H94.5216H94.5478H94.574H94.6002H94.6263H94.6523H94.6783H94.7043H94.7302H94.7561H94.7819H94.8077H94.8335H94.8592H94.8848H94.9104H94.936H94.9615H94.987H95.0124H95.0378H95.0631H95.0884H95.1136H95.1388H95.164H95.1891H95.2141H95.2391H95.2641H95.289H95.3139H95.3387H95.3635H95.3882H95.4129H95.4375H95.4621H95.4867H95.5112H95.5356H95.56H95.5844H95.6087H95.6329H95.6571H95.6813H95.7054H95.7295H95.7535H95.7774H95.8014H95.8252H95.849H95.8728H95.8965H95.9202H95.9438H95.9674H95.991H96.0144H96.0379H96.0612H96.0846H96.1079H96.1311H96.1543H96.1774H96.2005H96.2235H96.2465H96.2694H96.2923H96.3152H96.3379H96.3607H96.3834H96.406H96.4286H96.4511H96.4736H96.496H96.5184H96.5407H96.563H96.5852H96.6074H96.6295H96.6516H96.6736H96.6955H96.7175H96.7393H96.7611H96.7829H96.8046H96.8262H96.8478H96.8694H96.8909H96.9123H96.9337H96.9551H96.9763H96.9976H97.0188H97.0399H97.061H97.082H97.1029H97.1238H97.1447H97.1655H97.1863H97.207H97.2276H97.2482H97.2687H97.2892H97.3096H97.33H97.3503H97.3706H97.3908H97.411H97.4311H97.4511H97.4711H97.491H97.5109H97.5307H97.5505H97.5702H97.5899H97.6095H97.629H97.6485H97.668H97.6873H97.7067H97.7259H97.7452H97.7643H97.7834H97.8025H97.8214H97.8404H97.8593H97.8781H97.8968H97.9155H97.9342H97.9528H97.9713H97.9898H98.0082H98.0266H98.0449H98.0631H98.0813H98.0994H98.1175H98.1355H98.1535H98.1714H98.1892H98.207H98.2247H98.2424H98.26H98.2775H98.295H98.3125H98.3298H98.3472H98.3644H98.3816H98.3987H98.4158H98.4328H98.4498H98.4667H98.4835H98.5003H98.517H98.5337H98.5503H98.5668H98.5833H98.5997H98.6161H98.6324H98.6486H98.6648H98.6809H98.697H98.713H98.7289H98.7448H98.7606H98.7763H98.792H98.8077H98.8232H98.8387H98.8542H98.8696H98.8849H98.9001H98.9153H98.9305H98.9455H98.9606H98.9755H98.9904H99.0052H99.02H99.0347H99.0493H99.0639H99.0784H99.0928H99.1072H99.1215H99.1358H99.15H99.1641H99.1782H99.1922H99.2061H99.22H99.2338H99.2476H99.2613H99.2749H99.2884H99.3019H99.3153H99.3287H99.342H99.3552H99.3684H99.3815H99.3946H99.4075H99.4204H99.4333H99.4461H99.4588H99.4714H99.484H99.4965H99.509H99.5214H99.5337H99.5459H99.5581H99.5703H99.5823H99.5943H99.6062H99.6181H99.6299H99.6416H99.6533H99.6648H99.6764H99.6878H99.6992H99.7105H99.7218H99.733H99.7441H99.7552H99.7661H99.7771H99.7879H99.7987H99.8094H99.8201H99.8306H99.8412H99.8516H99.862H99.8723H99.8825H99.8927H99.9028H99.9128H99.9228H99.9327H99.9425H99.9523H99.9619H99.9716H99.9811H99.9906H100C101.105 130.421 102 129.526 102 128.421C102 127.317 101.105 126.421 100 126.421H99.9906H99.9811H99.9716H99.9619H99.9523H99.9425H99.9327H99.9228H99.9128H99.9028H99.8927H99.8825H99.8723H99.862H99.8516H99.8412H99.8306H99.8201H99.8094H99.7987H99.7879H99.7771H99.7661H99.7552H99.7441H99.733H99.7218H99.7105H99.6992H99.6878H99.6764H99.6648H99.6533H99.6416H99.6299H99.6181H99.6062H99.5943H99.5823H99.5703H99.5581H99.5459H99.5337H99.5214H99.509H99.4965H99.484H99.4714H99.4588H99.4461H99.4333H99.4204H99.4075H99.3946H99.3815H99.3684H99.3552H99.342H99.3287H99.3153H99.3019H99.2884H99.2749H99.2613H99.2476H99.2338H99.22H99.2061H99.1922H99.1782H99.1641H99.15H99.1358H99.1215H99.1072H99.0928H99.0784H99.0639H99.0493H99.0347H99.02H99.0052H98.9904H98.9755H98.9606H98.9455H98.9305H98.9153H98.9001H98.8849H98.8696H98.8542H98.8387H98.8232H98.8077H98.792H98.7763H98.7606H98.7448H98.7289H98.713H98.697H98.6809H98.6648H98.6486H98.6324H98.6161H98.5997H98.5833H98.5668H98.5503H98.5337H98.517H98.5003H98.4835H98.4667H98.4498H98.4328H98.4158H98.3987H98.3816H98.3644H98.3472H98.3298H98.3125H98.295H98.2775H98.26H98.2424H98.2247H98.207H98.1892H98.1714H98.1535H98.1355H98.1175H98.0994H98.0813H98.0631H98.0449H98.0266H98.0082H97.9898H97.9713H97.9528H97.9342H97.9155H97.8968H97.8781H97.8593H97.8404H97.8214H97.8025H97.7834H97.7643H97.7452H97.7259H97.7067H97.6873H97.668H97.6485H97.629H97.6095H97.5899H97.5702H97.5505H97.5307H97.5109H97.491H97.4711H97.4511H97.4311H97.411H97.3908H97.3706H97.3503H97.33H97.3096H97.2892H97.2687H97.2482H97.2276H97.207H97.1863H97.1655H97.1447H97.1238H97.1029H97.082H97.061H97.0399H97.0188H96.9976H96.9763H96.9551H96.9337H96.9123H96.8909H96.8694H96.8478H96.8262H96.8046H96.7829H96.7611H96.7393H96.7175H96.6955H96.6736H96.6516H96.6295H96.6074H96.5852H96.563H96.5407H96.5184H96.496H96.4736H96.4511H96.4286H96.406H96.3834H96.3607H96.3379H96.3152H96.2923H96.2694H96.2465H96.2235H96.2005H96.1774H96.1543H96.1311H96.1079H96.0846H96.0612H96.0379H96.0144H95.991H95.9674H95.9438H95.9202H95.8965H95.8728H95.849H95.8252H95.8014H95.7774H95.7535H95.7295H95.7054H95.6813H95.6571H95.6329H95.6087H95.5844H95.56H95.5356H95.5112H95.4867H95.4621H95.4375H95.4129H95.3882H95.3635H95.3387H95.3139H95.289H95.2641H95.2391H95.2141H95.1891H95.164H95.1388H95.1136H95.0884H95.0631H95.0378H95.0124H94.987H94.9615H94.936H94.9104H94.8848H94.8592H94.8335H94.8077H94.7819H94.7561H94.7302H94.7043H94.6783H94.6523H94.6263H94.6002H94.574H94.5478H94.5216H94.4953H94.469H94.4426H94.4162H94.3898H94.3633H94.3367H94.3102H94.2835H94.2569H94.2301H94.2034H94.1766H94.1497H94.1229H94.0959H94.069H94.042H94.0149H93.9878H93.9607H93.9335H93.9062H93.879H93.8517H93.8243H93.7969H93.7695H93.742H93.7145H93.6869H93.6593H93.6317H93.604H93.5763H93.5485H93.5207H93.4929H93.465H93.437H93.4091H93.3811H93.353H93.3249H93.2968H93.2686H93.2404H93.2122H93.1839H93.1555H93.1272H93.0988H93.0703H93.0418H93.0133H92.9847H92.9561H92.9275H92.8988H92.87H92.8413H92.8125H92.7836H92.7547H92.7258H92.6969H92.6679H92.6388H92.6098H92.5807H92.5515H92.5223H92.4931H92.4638H92.4345H92.4052H92.3758H92.3464H92.3169H92.2875H92.2579H92.2284H92.1988H92.1691H92.1395H92.1097H92.08H92.0502H92.0204H91.9905H91.9606H91.9307H91.9007H91.8708H91.8407H91.8106H91.7805H91.7504H91.7202H91.69H91.6597H91.6294H91.5991H91.5688H91.5384H91.5079H91.4775H91.447H91.4164H91.3859H91.3553H91.3246H91.294H91.2633H91.2325H91.2017H91.1709H91.1401H91.1092H91.0783H91.0474H91.0164H90.9854H90.9543H90.9232H90.8921H90.861H90.8298H90.7986H90.7674H90.7361H90.7048H90.6734H90.6421H90.6106H90.5792H90.5477H90.5162H90.4847H90.4531H90.4215H90.3899H90.3582H90.3265H90.2948H90.263H90.2312H90.1994H90.1676H90.1357H90.1038H90.0718H90.0398H90.0078H89.9758H89.9437H89.9116H89.8795H89.8473H89.8151H89.7829H89.7506H89.7183H89.686H89.6537H89.6213H89.5889H89.5564H89.524H89.4915H89.459H89.4264H89.3938H89.3612H89.3286H89.2959H89.2632H89.2305H89.1977H89.1649H89.1321H89.0993H89.0664H89.0335H89.0006H88.9676H88.9346H88.9016H88.8686H88.8355H88.8024H88.7693H88.7361H88.703H88.6698H88.6365H88.6033H88.57H88.5367H88.5033H88.4699H88.4366H88.4031H88.3697H88.3362H88.3027H88.2692H88.2356H88.202H88.1684H88.1348H88.1011H88.0675H88.0337H88H87.9663H87.9325H87.8989H87.8652H87.8316H87.798H87.7644H87.7308H87.6973H87.6638H87.6303H87.5969H87.5634H87.5301H87.4967H87.4633H87.43H87.3967H87.3635H87.3302H87.297H87.2639H87.2307H87.1976H87.1645H87.1314H87.0984H87.0654H87.0324H86.9994H86.9665H86.9336H86.9007H86.8679H86.8351H86.8023H86.7695H86.7368H86.7041H86.6714H86.6388H86.6062H86.5736H86.541H86.5085H86.476H86.4436H86.4111H86.3787H86.3463H86.314H86.2817H86.2494H86.2171H86.1849H86.1527H86.1205H86.0884H86.0563H86.0242H85.9922H85.9602H85.9282H85.8962H85.8643H85.8324H85.8006H85.7688H85.737H85.7052H85.6735H85.6418H85.6101H85.5785H85.5469H85.5153H85.4838H85.4523H85.4208H85.3894H85.3579H85.3266H85.2952H85.2639H85.2326H85.2014H85.1702H85.139H85.1079H85.0768H85.0457H85.0146H84.9836H84.9526H84.9217H84.8908H84.8599H84.8291H84.7983H84.7675H84.7367H84.706H84.6754H84.6447H84.6141H84.5836H84.553H84.5225H84.4921H84.4616H84.4312H84.4009H84.3706H84.3403H84.31H84.2798H84.2496H84.2195H84.1894H84.1593H84.1292H84.0993H84.0693H84.0394H84.0095H83.9796H83.9498H83.92H83.8903H83.8605H83.8309H83.8012H83.7716H83.7421H83.7125H83.6831H83.6536H83.6242H83.5948H83.5655H83.5362H83.5069H83.4777H83.4485H83.4193H83.3902H83.3612H83.3321H83.3031H83.2742H83.2453H83.2164H83.1875H83.1587H83.13H83.1012H83.0725H83.0439H83.0153H82.9867H82.9582H82.9297H82.9012H82.8728H82.8445H82.8161H82.7878H82.7596H82.7314H82.7032H82.6751H82.647H82.6189H82.5909H82.563H82.535H82.5071H82.4793H82.4515H82.4237H82.396H82.3683H82.3407H82.3131H82.2855H82.258H82.2305H82.2031H82.1757H82.1483H82.121H82.0938H82.0665H82.0393H82.0122H81.9851H81.958H81.931H81.9041H81.8771H81.8503H81.8234H81.7966H81.7699H81.7431H81.7165H81.6898H81.6633H81.6367H81.6102H81.5838H81.5574H81.531H81.5047H81.4784H81.4522H81.426H81.3998H81.3737H81.3477H81.3217H81.2957H81.2698H81.2439H81.2181H81.1923H81.1665H81.1408H81.1152H81.0896H81.064H81.0385H81.013H80.9876H80.9622H80.9369H80.9116H80.8864H80.8612H80.836H80.8109H80.7859H80.7609H80.7359H80.711H80.6861H80.6613H80.6365H80.6118H80.5871H80.5625H80.5379H80.5133H80.4888H80.4644H80.44H80.4156H80.3913H80.3671H80.3429H80.3187H80.2946H80.2705H80.2465H80.2226H80.1986H80.1748H80.151H80.1272H80.1035H80.0798H80.0562H80.0326H80.009H79.9856H79.9621H79.9388H79.9154H79.8921H79.8689H79.8457H79.8226H79.7995H79.7765H79.7535H79.7306H79.7077H79.6848H79.6621H79.6393H79.6166H79.594H79.5714H79.5489H79.5264H79.504H79.4816H79.4593H79.437H79.4148H79.3926H79.3705H79.3484H79.3264H79.3045H79.2825H79.2607H79.2389H79.2171H79.1954H79.1738H79.1522H79.1306H79.1091H79.0877H79.0663H79.0449H79.0237H79.0024H78.9812H78.9601H78.939H78.918H78.8971H78.8762H78.8553H78.8345H78.8137H78.793H78.7724H78.7518H78.7313H78.7108H78.6904H78.67H78.6497H78.6294H78.6092H78.589H78.5689H78.5489H78.5289H78.509H78.4891H78.4693H78.4495H78.4298H78.4101H78.3905H78.371H78.3515H78.332H78.3127H78.2933H78.2741H78.2548H78.2357H78.2166H78.1975H78.1786H78.1596H78.1407H78.1219H78.1032H78.0845H78.0658H78.0472H78.0287H78.0102H77.9918H77.9734H77.9551H77.9369H77.9187H77.9006H77.8825H77.8645H77.8465H77.8286H77.8108H77.793H77.7753H77.7576H77.74H77.7225H77.705H77.6875H77.6702H77.6528H77.6356H77.6184H77.6013H77.5842H77.5672H77.5502H77.5333H77.5165H77.4997H77.483H77.4663H77.4497H77.4332H77.4167H77.4003H77.3839H77.3676H77.3514H77.3352H77.3191H77.303H77.287H77.2711H77.2552H77.2394H77.2237H77.208H77.1923H77.1768H77.1613H77.1458H77.1304H77.1151H77.0999H77.0847H77.0695H77.0545H77.0395H77.0245H77.0096H76.9948H76.98H76.9653H76.9507H76.9361H76.9216H76.9072H76.8928H76.8785H76.8642H76.85H76.8359H76.8218H76.8078H76.7939H76.78H76.7662H76.7524H76.7387H76.7251H76.7116H76.6981H76.6847H76.6713H76.658H76.6448H76.6316H76.6185H76.6054H76.5925H76.5796H76.5667H76.5539H76.5412H76.5286H76.516H76.5035H76.491H76.4786H76.4663H76.4541H76.4419H76.4297H76.4177H76.4057H76.3938H76.3819H76.3701H76.3584H76.3467H76.3352H76.3236H76.3122H76.3008H76.2895H76.2782H76.267H76.2559H76.2448H76.2339H76.2229H76.2121H76.2013H76.1906H76.1799H76.1694H76.1588H76.1484H76.138H76.1277H76.1175H76.1073H76.0972H76.0872H76.0772H76.0673H76.0575H76.0477H76.0381H76.0284H76.0189H76.0094H76ZM103.477 98.421C102.373 98.4084 101.487 97.5027 101.5 96.3982C101.513 95.2937 102.418 94.4086 103.523 94.4213C107.554 94.4675 115.518 94.484 119.001 94.4864C120.106 94.4872 121.001 95.3832 121 96.4878C120.999 97.5923 120.103 98.4872 118.999 98.4864C115.518 98.484 107.533 98.4676 103.477 98.421Z" fill="currentColor" />
</svg>
