<svg width="368" height="287" fill="none" xmlns="http://www.w3.org/2000/svg">
  <path fill-rule="evenodd" clip-rule="evenodd" d="m338.369 224.23-109.624-43.183-3.951 10.028a5.774 5.774 0 0 1-7.492 3.253l-18.107-7.132c-30.531 35.181-81.074 49.101-126.93 31.038-58.136-22.901-86.723-88.537-63.85-146.602C31.286 13.566 96.957-14.941 155.093 7.96c45.81 18.045 73.273 62.625 71.668 109.127l18.15 7.149a5.776 5.776 0 0 1 3.261 7.489l-3.998 10.15L353.8 185.057c10.83 4.266 16.156 16.494 11.895 27.311-4.261 10.817-16.495 16.128-27.326 11.862ZM138.17 50.924c34.378 13.542 51.283 52.356 37.758 86.693-13.526 34.337-52.36 51.194-86.739 37.652-34.378-13.542-51.283-52.356-37.757-86.692C64.957 54.24 103.79 37.382 138.17 50.924ZM77.239 272.472v-2.568h-5.305c-1.343 3.384-4.632 5.688-9.383 6.816l-.72-1.608c5.255-1.224 8.255-3.792 8.615-7.2H62.96v-1.608h9.623c0 .72-.072 1.392-.215 2.064h4.871v-3.12h1.993v10.992h-1.992v-2.232h-5.617v-1.536h5.617Zm-9.889 10.032V285h12.6v1.56H65.407v-5.544h11.856v-2.208H65.36v-1.584H79.23v5.28H67.35Zm28.055-13.728c0 1.728 0 4.536-.6 8.544l-1.968-.192c.6-3.576.648-6.192.648-7.92h-8.952V267.6h10.872v1.176Zm-7.488 4.968h1.944v6.576c2.352-.096 4.752-.24 6.936-.504l.12 1.44c-4.464.72-9.528.816-13.344.816l-.216-1.632c1.368 0 2.952-.024 4.56-.072v-6.624Zm12.168.504h3.432v1.656h-3.432v10.872h-1.968v-21.528h1.968v9Zm8.062-5.232h12.576v-1.752h-12.624v-1.392h14.568v4.488h-12.576v1.848h12.96v1.416h-14.904v-4.608Zm14.592 14.064h-12.768v1.992h13.44v1.416h-15.384v-4.776h12.768v-1.8h-12.816v-1.416h14.76v4.584Zm-17.088-6.336v-1.488h19.512v1.488h-19.512Zm34.789-7.032c0 2.592 2.088 4.944 5.256 5.856l-.936 1.512c-2.448-.72-4.32-2.304-5.28-4.32-.936 2.232-2.904 3.936-5.424 4.752l-.96-1.56c3.192-.96 5.376-3.408 5.376-6.24v-.36h-4.776v-1.584h4.776v-2.616h1.968v2.616h4.752v1.584h-4.752v.36Zm9.72 9.192v1.584h-6.024c.36 2.208 3.408 4.152 6.864 4.704l-.744 1.512c-3.12-.528-5.928-2.088-7.152-4.224-1.2 2.16-3.984 3.672-7.152 4.2l-.696-1.512c3.456-.528 6.504-2.424 6.816-4.68h-6v-1.584h14.088Zm-.36-13.632v5.304h3.192v1.632H149.8v5.544h-1.968v-12.48h1.968Zm18.118 3.816h-5.064v2.736c0 3.648 2.592 7.368 5.76 8.712l-1.104 1.584c-2.496-1.152-4.608-3.624-5.64-6.576-.984 3.144-3.096 5.856-5.544 7.104l-1.152-1.584c3.096-1.464 5.712-5.52 5.712-9.24v-2.736h-4.992v-1.632h12.024v1.632Zm2.904 17.688v-21.504h1.968v21.504h-1.968Zm20.533-7.896h2.016v.648c0 2.856 3.289 4.992 7.201 5.568l-.745 1.536c-3.288-.552-6.192-2.064-7.464-4.392-1.319 2.328-4.224 3.84-7.511 4.392l-.745-1.536c3.913-.576 7.248-2.712 7.248-5.568v-.648Zm6.288-11.184h-10.608v4.128h10.608v-4.128Zm-4.295 5.712v2.496h8.735v1.584h-19.488v-1.584h8.785v-2.496h-6.265v-7.272h14.472v7.272h-6.239Zm27.622-.624h-2.712v5.472h-1.848v-12.672h1.848v5.592h2.712v-5.904h1.896v13.32h-1.896v-5.808Zm-9.936-5.064h4.488l-.024 1.56h-10.92v-1.56h4.512v-2.352h1.944v2.352Zm1.872 6.336c0-1.344-1.152-2.232-2.832-2.232-1.704 0-2.832.888-2.832 2.232 0 1.344 1.128 2.208 2.832 2.208 1.68 0 2.832-.864 2.832-2.208Zm1.752 0c0 2.208-1.872 3.672-4.584 3.672-2.712 0-4.608-1.464-4.608-3.672 0-2.232 1.896-3.696 4.608-3.696 2.712 0 4.584 1.464 4.584 3.696Zm3.624 5.16h1.944v.744c0 2.112 1.608 4.224 4.32 5.088l-.912 1.464c-2.16-.744-3.672-2.16-4.392-3.912-.648 1.704-1.944 3.288-3.936 4.104-2.064-.768-3.336-2.28-3.984-4.032-.792 1.68-2.28 3.096-4.344 3.84l-.912-1.464c2.688-.912 4.32-3.12 4.32-5.088v-.744h1.896v.744c0 1.824.984 3.744 2.976 4.848 2.016-1.2 3.024-3.264 3.024-4.848v-.744Zm19.246-12.768c0 2.664 3.792 5.04 7.608 5.52l-.72 1.584c-3.336-.528-6.528-2.208-7.896-4.608-1.344 2.4-4.56 4.08-7.92 4.608l-.72-1.584c3.864-.48 7.632-2.784 7.632-5.52v-.96h2.016v.96Zm-6.36 18.456h10.584v-2.736h-10.584v2.736Zm0-4.248h10.584v-2.52h1.944v8.352h-14.472v-8.352h1.944v2.52Zm-4.416-4.008v-1.584h19.488v1.584h-19.488Zm23.446-9.312h1.968v12.192c3.24 0 6.576-.288 10.152-1.008l.216 1.68c-3.744.768-7.128 1.008-10.56 1.008h-1.776v-13.872Zm14.328 19.416v-21.504h1.968v21.504h-1.968Zm17.326-17.808h-8.04v10.824c3.816 0 6.576-.168 9.696-.72l.216 1.632c-3.288.624-6.12.768-10.176.768h-1.704v-14.136h10.008v1.632Zm5.64 4.8h3.552v1.632h-3.552v11.448h-1.968v-21.576h1.968v8.496Zm9.166 9.912c0 .984-.72 1.656-1.584 1.656-.864 0-1.584-.672-1.584-1.656 0-1.008.72-1.704 1.584-1.704.864 0 1.584.696 1.584 1.704Zm6.68 0c0 .984-.72 1.656-1.584 1.656-.864 0-1.584-.672-1.584-1.656 0-1.008.72-1.704 1.584-1.704.864 0 1.584.696 1.584 1.704Zm6.679 0c0 .984-.72 1.656-1.583 1.656-.865 0-1.585-.672-1.585-1.656 0-1.008.72-1.704 1.585-1.704.863 0 1.583.696 1.583 1.704ZM80 106a6 6 0 1 1-12 0 6 6 0 0 1 12 0Zm47 0a6 6 0 1 0 0-12 6 6 0 0 0 0 12Zm-29.876 17.452c-3.21 1.761-6.097 4.076-7.745 5.645a2 2 0 1 1-2.758-2.897c1.852-1.764 5.015-4.299 8.58-6.255 3.484-1.912 7.758-3.495 11.667-2.762 3.337.625 5.832 1.462 7.62 2.287 1.715.792 2.951 1.651 3.574 2.429a2 2 0 1 1-3.124 2.499l-.001-.002c-.017-.017-.157-.163-.509-.404a11.313 11.313 0 0 0-1.616-.89c-1.445-.667-3.617-1.413-6.681-1.988-2.49-.467-5.717.533-9.007 2.338Zm42.441 1.067c3.437.03 4.693-3.059 4.093-7.632-.319-2.439-2.9-7.427-7.587-11.065 1.187 6.138.875 9.974.227 12.587-.908 3.659.623 5.971 3.267 6.11Z" fill="currentColor" />
</svg>