<svg width="236" height="236" viewBox="0 0 236 236" fill="none" xmlns="http://www.w3.org/2000/svg">
  <path fill-rule="evenodd" clip-rule="evenodd" d="M138.85 165.135C104.021 187.857 56.8874 183.93 26.3114 153.354C-8.77045 118.272 -8.77045 61.3931 26.3114 26.3113C61.3932 -8.77045 118.272 -8.77045 153.354 26.3113C183.93 56.8874 187.857 104.021 165.135 138.85L175.258 148.973C176.225 149.941 176.225 151.51 175.258 152.478L169.125 158.611L235.274 224.76C236.242 225.728 236.242 227.297 235.274 228.265L228.265 235.274C227.297 236.242 225.728 236.242 224.76 235.274L158.611 169.125L152.478 175.258C151.51 176.225 149.941 176.225 148.973 175.258L138.85 165.135ZM142.84 142.84C113.565 172.115 66.1004 172.115 36.8252 142.84C7.55005 113.565 7.55005 66.1003 36.8252 36.8252C66.1004 7.55005 113.565 7.55005 142.84 36.8252C172.115 66.1003 172.115 113.565 142.84 142.84ZM49 105.783C52.866 105.783 56 102.649 56 98.7826C56 94.9166 52.866 91.7826 49 91.7826C45.134 91.7826 42 94.9166 42 98.7826C42 102.649 45.134 105.783 49 105.783ZM101.152 98.7826C101.152 102.649 98.0183 105.783 94.1523 105.783C90.2864 105.783 87.1523 102.649 87.1523 98.7826C87.1523 94.9166 90.2864 91.7826 94.1523 91.7826C98.0183 91.7826 101.152 94.9166 101.152 98.7826ZM61.5786 120.641C62.2206 119.816 63.5759 118.46 65.4151 117.324C67.2471 116.191 69.44 115.348 71.7934 115.348C74.1469 115.348 76.3398 116.191 78.1717 117.324C80.0109 118.46 81.3662 119.816 82.0082 120.641C82.6863 121.513 83.9429 121.67 84.8148 120.992C85.6867 120.314 85.8437 119.057 85.1656 118.185C84.2351 116.989 82.5241 115.311 80.2749 113.921C78.0184 112.526 75.1009 111.348 71.7934 111.348C68.486 111.348 65.5684 112.526 63.3119 113.921C61.0627 115.311 59.3517 116.989 58.4212 118.185C57.7431 119.057 57.9002 120.314 58.7721 120.992C59.644 121.67 60.9005 121.513 61.5786 120.641ZM57.8679 79.5409C58.6737 80.2964 58.7145 81.5621 57.9591 82.3679C55.6022 84.8819 52.2269 86.4751 49.1549 87.4687C46.0515 88.4725 43.0229 88.9389 41.1288 89.0611C40.0265 89.1322 39.0753 88.2963 39.0042 87.194C38.933 86.0917 39.769 85.1405 40.8712 85.0694C42.459 84.9669 45.1586 84.5572 47.9239 83.6628C50.7206 82.7583 53.3543 81.4312 55.0409 79.6321C55.7964 78.8263 57.0621 78.7855 57.8679 79.5409ZM86.0409 82.3679C85.2855 81.5621 85.3263 80.2964 86.1321 79.5409C86.9379 78.7855 88.2036 78.8263 88.9591 79.6321C90.6457 81.4312 93.2794 82.7583 96.0761 83.6628C98.8414 84.5572 101.541 84.9669 103.129 85.0694C104.231 85.1405 105.067 86.0917 104.996 87.194C104.925 88.2963 103.974 89.1322 102.871 89.0611C100.977 88.9389 97.9485 88.4725 94.8451 87.4687C91.7731 86.4751 88.3978 84.8819 86.0409 82.3679Z" fill="currentColor" />
</svg>